solid cube-ascii
    facet normal  0.000000e-00  0.000000e-00  7.000000e-00
        outer loop
            vertex  0.000000e-00  0.000000e-00  7.000000e-01
            vertex  7.000000e-01  0.000000e-00  7.000000e-01
            vertex  0.000000e-00  7.000000e-01  7.000000e-01
        endloop
    endfacet
    facet normal  0.000000e-00  0.000000e-00  7.000000e-00
        outer loop
            vertex  7.000000e-01  7.000000e-01  7.000000e-01
            vertex  0.000000e-00  7.000000e-01  7.000000e-01
            vertex  7.000000e-01  0.000000e-00  7.000000e-01
        endloop
    endfacet
    facet normal  7.000000e-00  0.000000e-00  0.000000e-00
        outer loop
            vertex  7.000000e-01  0.000000e-00  7.000000e-01
            vertex  7.000000e-01  0.000000e-00  0.000000e-00
            vertex  7.000000e-01  7.000000e-01  7.000000e-01
        endloop
    endfacet
    facet normal  7.000000e-00  0.000000e-00  0.000000e-00
        outer loop
            vertex  7.000000e-01  7.000000e-01  0.000000e-00
            vertex  7.000000e-01  7.000000e-01  7.000000e-01
            vertex  7.000000e-01  0.000000e-00  0.000000e-00
        endloop
    endfacet
    facet normal  0.000000e-00  0.000000e-00 -7.000000e-00
        outer loop
            vertex  7.000000e-01  0.000000e-00  0.000000e-00
            vertex  0.000000e-00  0.000000e-00  0.000000e-00
            vertex  7.000000e-01  7.000000e-01  0.000000e-00
        endloop
    endfacet
    facet normal  0.000000e-00  0.000000e-00 -7.000000e-00
        outer loop
            vertex  0.000000e-00  7.000000e-01  0.000000e-00
            vertex  7.000000e-01  7.000000e-01  0.000000e-00
            vertex  0.000000e-00  0.000000e-00  0.000000e-00
        endloop
    endfacet
    facet normal -7.000000e-00  0.000000e-00  0.000000e-00
        outer loop
            vertex  0.000000e-00  0.000000e-00  0.000000e-00
            vertex  0.000000e-00  0.000000e-00  7.000000e-01
            vertex  0.000000e-00  7.000000e-01  0.000000e-00
        endloop
    endfacet
    facet normal -7.000000e-00  0.000000e-00  0.000000e-00
        outer loop
            vertex  0.000000e-00  7.000000e-01  7.000000e-01
            vertex  0.000000e-00  7.000000e-01  0.000000e-00
            vertex  0.000000e-00  0.000000e-00  7.000000e-01
        endloop
    endfacet
    facet normal  0.000000e-00  7.000000e-00  0.000000e-00
        outer loop
            vertex  0.000000e-00  7.000000e-01  7.000000e-01
            vertex  7.000000e-01  7.000000e-01  7.000000e-01
            vertex  0.000000e-00  7.000000e-01  0.000000e-00
        endloop
    endfacet
    facet normal  0.000000e-00  7.000000e-00  0.000000e-00
        outer loop
            vertex  7.000000e-01  7.000000e-01  0.000000e-00
            vertex  0.000000e-00  7.000000e-01  0.000000e-00
            vertex  7.000000e-01  7.000000e-01  7.000000e-01
        endloop
    endfacet
    facet normal  0.000000e-00 -7.000000e-00  0.000000e-00
        outer loop
            vertex  7.000000e-01  0.000000e-00  7.000000e-01
            vertex  0.000000e-00  0.000000e-00  7.000000e-01
            vertex  7.000000e-01  0.000000e-00  0.000000e-00
        endloop
    endfacet
    facet normal  0.000000e-00 -7.000000e-00  0.000000e-00
        outer loop
            vertex  0.000000e-00  0.000000e-00  0.000000e-00
            vertex  7.000000e-01  0.000000e-00  0.000000e-00
            vertex  0.000000e-00  0.000000e-00  7.000000e-01
        endloop
    endfacet
endsolid
